<svg
  fill="none"
  height="24"
  viewBox="0 0 24 24"
  width="24"
  xmlns="http://www.w3.org/2000/svg"
>
  <g clip-path="url(#clip0_18_195)">
    <path
      clip-rule="evenodd"
      d="M12 1.52588e-05C5.37 1.52588e-05 0 5.37002 0 12C0 17.31 3.435 21.795 8.205 23.385C8.805 23.49 9.03 23.13 9.03 22.815C9.03 22.53 9.015 21.585 9.015 20.58C6 21.135 5.22 19.845 4.98 19.17C4.845 18.825 4.26 17.76 3.75 17.475C3.33 17.25 2.73 16.695 3.735 16.68C4.68 16.665 5.355 17.55 5.58 17.91C6.66 19.725 8.385 19.215 9.075 18.9C9.18 18.12 9.495 17.595 9.84 17.295C7.17 16.995 4.38 15.96 4.38 11.37C4.38 10.065 4.845 8.98501 5.61 8.14501C5.49 7.84502 5.07 6.61502 5.73 4.96502C5.73 4.96502 6.735 4.65002 9.03 6.19502C9.99 5.92502 11.01 5.79002 12.03 5.79002C13.05 5.79002 14.07 5.92502 15.03 6.19502C17.325 4.63502 18.33 4.96502 18.33 4.96502C18.99 6.61502 18.57 7.84502 18.45 8.14501C19.215 8.98501 19.68 10.05 19.68 11.37C19.68 15.975 16.875 16.995 14.205 17.295C14.64 17.67 15.015 18.39 15.015 19.515C15.015 21.12 15 22.41 15 22.815C15 23.13 15.225 23.505 15.825 23.385C20.565 21.795 24 17.295 24 12C24 5.37002 18.63 1.52588e-05 12 1.52588e-05Z"
      fill-rule="evenodd"
      fill="#283556"
    />
  </g>
</svg>
