<svg
	width="24"
	height="24"
	viewBox="0 0 65 65"
	fill="none"
	xmlns="http://www.w3.org/2000/svg"
>
	<path
		d="M55.204 55.204H45.604V40.17C45.604 36.585 45.54 31.97 40.611 31.97C35.611 31.97 34.846 35.876 34.846 39.909V55.203H25.246V24.287H34.462V28.512H34.591C35.5133 26.935 36.8461 25.6377 38.4473 24.7583C40.0486 23.8789 41.8584 23.4502 43.684 23.518C53.414 23.518 55.208 29.918 55.208 38.244L55.204 55.204ZM14.414 20.061C13.3122 20.0612 12.235 19.7346 11.3187 19.1227C10.4025 18.5107 9.68832 17.6407 9.26648 16.6228C8.84464 15.6049 8.73409 14.4848 8.94885 13.4041C9.16362 12.3234 9.69404 11.3307 10.473 10.5514C11.252 9.77215 12.2446 9.24138 13.3252 9.02623C14.4058 8.81107 15.526 8.9212 16.544 9.34267C17.562 9.76414 18.4322 10.478 19.0446 11.3941C19.6569 12.3101 19.9838 13.3871 19.984 14.489C19.9841 15.2206 19.8402 15.945 19.5603 16.621C19.2805 17.2969 18.8702 17.9112 18.353 18.4286C17.8358 18.946 17.2217 19.3564 16.5458 19.6365C15.87 19.9166 15.1456 20.0609 14.414 20.061ZM19.214 55.204H9.604V24.287H19.214V55.204ZM59.99 0.00398692H4.78003C3.52692 -0.0101544 2.3194 0.473782 1.42291 1.34945C0.526428 2.22513 0.014317 3.42089 -0.000976562 4.67399V60.113C0.0137935 61.3667 0.525604 62.5633 1.42206 63.4399C2.31851 64.3164 3.5263 64.8013 4.78003 64.788H59.99C61.2462 64.8037 62.4574 64.3202 63.3574 63.4437C64.2574 62.5671 64.7726 61.3692 64.79 60.113V4.66999C64.7721 3.4144 64.2565 2.21728 63.3564 1.34163C62.4564 0.465979 61.2456 -0.0165743 59.99 -1.46987e-05"
		fill="#283556"
	/>
</svg>
