<svg
  width="23"
  height="24"
  viewBox="0 0 23 24"
  fill="none"
  xmlns="http://www.w3.org/2000/svg"
>
  <path
    d="M21.9102 14.3878C21.5811 16.0808 18.9628 17.9336 15.9557 18.2927C14.3876 18.4798 12.8437 18.6517 11.1974 18.5762C8.50502 18.4529 6.38054 17.9336 6.38054 17.9336C6.38054 18.1957 6.3967 18.4452 6.42902 18.6786C6.77905 21.3357 9.06374 21.4949 11.2279 21.5691C13.4123 21.6438 15.3573 21.0306 15.3573 21.0306L15.447 23.0053C15.447 23.0053 13.9191 23.8257 11.1974 23.9766C9.69656 24.0591 7.83302 23.9389 5.66251 23.3644C0.95503 22.1184 0.145452 17.1005 0.0215779 12.009C-0.0161792 10.4972 0.00709574 9.07179 0.00709574 7.8796C0.00709574 2.67326 3.41829 1.14721 3.41829 1.14721C5.1383 0.357285 8.08969 0.0251004 11.158 1.52588e-05H11.2333C14.3016 0.0251004 17.2549 0.357285 18.9748 1.14721C18.9748 1.14721 22.3859 2.67326 22.3859 7.8796C22.3859 7.8796 22.4287 11.7209 21.9102 14.3878Z"
    fill="#283556"
  />
  <path
    d="M18.3623 8.28349V14.5875H15.8648V8.46879C15.8648 7.17897 15.3221 6.5243 14.2366 6.5243C13.0364 6.5243 12.4349 7.3009 12.4349 8.83653V12.1857H9.95207V8.83653C9.95207 7.3009 9.35042 6.5243 8.15021 6.5243C7.06469 6.5243 6.522 7.17897 6.522 8.46879V14.5875H4.02448V8.28349C4.02448 6.9951 4.35252 5.97126 5.01146 5.21379C5.69096 4.45633 6.58083 4.06802 7.68549 4.06802C8.96353 4.06802 9.93138 4.55925 10.5713 5.54184L11.1934 6.58469L11.8156 5.54184C12.4554 4.55925 13.4233 4.06802 14.7014 4.06802C15.806 4.06802 16.6958 4.45633 17.3755 5.21379C18.0343 5.97126 18.3623 6.9951 18.3623 8.28349Z"
    fill="#f3fff9"
  />
</svg>
