<svg
  fill="none"
  height="22"
  viewBox="0 0 30 22"
  width="30"
  xmlns="http://www.w3.org/2000/svg"
>
  <path
    d="M29.2433 3.26538C28.8992 1.97949 27.8885 0.968966 26.6027 0.62475C24.2744 0.000244328 14.9338 0.000244141 14.9338 0.000244141C14.9338 0.000244141 5.59326 0.000244328 3.26488 0.62475C1.979 0.968966 0.968477 1.97949 0.624261 3.26538C-0.000243954 5.59374 -0.000244141 10.4546 -0.000244141 10.4546C-0.000244141 10.4546 -0.000243954 15.3154 0.624261 17.6438C0.968477 18.9297 1.979 19.9402 3.26488 20.2843C5.59326 20.9089 14.9338 20.9089 14.9338 20.9089C14.9338 20.9089 24.2744 20.9089 26.6027 20.2843C27.8885 19.9402 28.8992 18.9297 29.2433 17.6438C29.8679 15.3154 29.8679 10.4546 29.8679 10.4546C29.8679 10.4546 29.8653 5.59374 29.2433 3.26538Z"
    fill="#283556"
  />
  <path
    d="M11.9443 14.9345L19.704 10.4548L11.9443 5.97504V14.9345Z"
    fill="#d7e9ef"
  />
</svg>
