<svg
  fill="none"
  height="24"
  viewBox="0 0 30 24"
  width="30"
  xmlns="http://www.w3.org/2000/svg"
>
  <path
    d="M26.3051 6.0777C26.3229 6.33489 26.3229 6.59208 26.3229 6.85164C26.3229 14.7606 20.302 23.8821 9.29246 23.8821V23.8773C6.04022 23.8821 2.85553 22.9505 0.117676 21.194C0.590578 21.2509 1.06585 21.2793 1.54231 21.2805C4.2375 21.2829 6.85565 20.3786 8.97601 18.7133C6.41475 18.6647 4.16876 16.9948 3.38414 14.5568C4.28135 14.7298 5.20582 14.6942 6.08644 14.4536C3.29406 13.8895 1.28512 11.4361 1.28512 8.58681V8.51095C2.11714 8.97437 3.04872 9.23156 4.00164 9.26001C1.37164 7.50233 0.560948 4.00356 2.14914 1.26808C5.18804 5.00744 9.67173 7.28069 14.4849 7.52129C14.0025 5.44242 14.6615 3.26399 16.2165 1.80261C18.6272 -0.463529 22.4188 -0.347378 24.6849 2.06217C26.0254 1.79787 27.3102 1.306 28.4859 0.609094C28.0391 1.99462 27.1039 3.17154 25.8547 3.91941C27.0411 3.77956 28.2003 3.46192 29.2919 2.97716C28.4883 4.18134 27.4761 5.23026 26.3051 6.0777Z"
    fill="#082138"
  />
</svg>
