<svg
	fill="none"
	height="32"
	viewBox="0 0 32 32"
	width="32"
	xmlns="http://www.w3.org/2000/svg"
>
	<rect width="32" height="32" rx="6" fill="url(#paint0_linear_0_1)" />
	<path
		d="M14.3164 23.4434C14.3164 25.3184 13.8802 26.7539 13.0078 27.75C12.1419 28.7461 10.8854 29.2441 9.23828 29.2441C8.5026 29.2441 7.82227 29.1172 7.19727 28.8633V25.9043C7.73763 26.3145 8.3431 26.5195 9.01367 26.5195C10.4525 26.5195 11.1719 25.4518 11.1719 23.3164V14.9961H14.3164V23.4434ZM28.877 28.0625C27.5098 28.8503 25.8105 29.2441 23.7793 29.2441C21.5267 29.2441 19.7493 28.6224 18.4473 27.3789C17.1517 26.1289 16.5039 24.4102 16.5039 22.2227C16.5039 20.0221 17.2135 18.2285 18.6328 16.8418C20.0521 15.4551 21.9401 14.7617 24.2969 14.7617C25.7812 14.7617 27.0898 14.9668 28.2227 15.377V18.3359C27.1419 17.7109 25.8203 17.3984 24.2578 17.3984C22.9492 17.3984 21.8815 17.8249 21.0547 18.6777C20.2344 19.5241 19.8242 20.6569 19.8242 22.0762C19.8242 23.515 20.1921 24.6283 20.9277 25.416C21.6699 26.2038 22.6693 26.5977 23.9258 26.5977C24.681 26.5977 25.2799 26.4902 25.7227 26.2754V23.541H22.9199V21.0215H28.877V28.0625Z"
		fill="white"
	/>
	<defs>
		<linearGradient
			id="paint0_linear_0_1"
			x1="16"
			y1="0"
			x2="16"
			y2="32"
			gradientUnits="userSpaceOnUse"
		>
			<stop stop-color="#1170d0" />
			<stop offset="1" stop-color="#142149" />
		</linearGradient>
	</defs>
</svg>
