<svg width="136" height="17" viewBox="0 0 136 17" fill="none" xmlns="http://www.w3.org/2000/svg">
<path d="M2.99994 5.01633C2.99994 5.01633 15.491 11.5482 16.9955 11.5482C18.4999 11.5482 27.4999 5.01633 29.3636 5.01633C31.2272 5.01633 40.8754 11.5482 43.4377 11.5482C45.9999 11.5482 51.9999 5.01633 54.5263 5.01633C57.0527 5.01633 64.4999 11.5482 67.7474 11.5482C69.9999 11.5482 77.4999 5.01633 80.542 5.01633C83.5841 5.01633 89.9999 11.5482 93.3366 11.5482C96.6733 11.5482 103.5 4.84528 106.984 5.01633C110.469 5.18739 116.5 11.5482 118.926 11.5482C121.352 11.5482 133 5.01633 133 5.01633" stroke="#50A1F3" stroke-width="10"/>
</svg>
